<svg xmlns="http://www.w3.org/2000/svg" viewBox="0 0 128 128" role="img" aria-label="Urchin icon">
  <defs>
    <linearGradient id="spikeGrad" x1="18%" y1="12%" x2="82%" y2="88%">
      <stop offset="0%" stop-color="#FFD95A"/>
      <stop offset="100%" stop-color="#C69600"/>
    </linearGradient>
    <radialGradient id="bodyGrad" cx="44%" cy="36%" r="70%">
      <stop offset="0%" stop-color="#232323"/>
      <stop offset="100%" stop-color="#090909"/>
    </radialGradient>
    <radialGradient id="glow" cx="50%" cy="50%" r="50%">
      <stop offset="0%" stop-color="#F6C400" stop-opacity="0.26"/>
      <stop offset="100%" stop-color="#F6C400" stop-opacity="0"/>
    </radialGradient>
  </defs>

  <circle cx="64" cy="64" r="50" fill="url(#glow)"/>

  <g fill="none" stroke="url(#spikeGrad)" stroke-linecap="round">
    <path stroke-width="6" d="M 98 64 L 122 64 M 93.4 81 L 114.2 93 M 81 93.4 L 93 114.2 M 64 98 L 64 122 M 47 93.4 L 35 114.2 M 34.6 81 L 13.8 93 M 30 64 L 6 64 M 34.6 47 L 13.8 35 M 47 34.6 L 35 13.8 M 64 30 L 64 6 M 81 34.6 L 93 13.8 M 93.4 47 L 114.2 35"/>
    <path stroke-width="4" opacity="0.85" d="M 100.7 73.8 L 114.2 77.5 M 90.9 90.9 L 100.8 100.8 M 73.8 100.7 L 77.5 114.2 M 54.2 100.7 L 50.5 114.2 M 37.1 90.9 L 27.2 100.8 M 27.3 73.8 L 13.8 77.5 M 27.3 54.2 L 13.8 50.5 M 37.1 37.1 L 27.2 27.2 M 54.2 27.3 L 50.5 13.8 M 73.8 27.3 L 77.5 13.8 M 90.9 37.1 L 100.8 27.2 M 100.7 54.2 L 114.2 50.5"/>
  </g>

  <circle cx="64" cy="64" r="29" fill="url(#bodyGrad)" stroke="#FFD95A" stroke-width="4"/>
  <circle cx="64" cy="64" r="16" fill="#090909" stroke="#C69600" stroke-width="2.5"/>
  <circle cx="64" cy="64" r="4.5" fill="#F6C400"/>

  <path d="M50 51 C55 45, 63 42, 72 43" fill="none" stroke="#FFF4BF" stroke-linecap="round" stroke-width="2" opacity="0.42"/>
</svg>
